<?xml version="1.0" encoding="UTF-8" standalone="no"?><!DOCTYPE svg PUBLIC "-//W3C//DTD SVG 1.1//EN" "http://www.w3.org/Graphics/SVG/1.1/DTD/svg11.dtd"><svg width="100%" height="100%" viewBox="0 0 558 558" version="1.1" xmlns="http://www.w3.org/2000/svg" xmlns:xlink="http://www.w3.org/1999/xlink" xml:space="preserve" xmlns:serif="http://www.serif.com/" style="fill-rule:evenodd;clip-rule:evenodd;stroke-linejoin:round;stroke-miterlimit:2;"><g><path d="M279,0.839C432.624,0.839 557.161,125.376 557.161,279C557.161,432.625 432.624,557.162 279,557.162C125.375,557.162 0.838,432.625 0.838,279C0.838,125.376 125.375,0.839 279,0.839Z" style="fill:rgb(26,26,26);fill-rule:nonzero;"/><path d="M96.221,223.691L90.894,179.404C90.627,177.145 92.399,175.169 94.661,175.166C202.096,175.162 309.528,175.162 416.964,175.162C418.964,175.162 420.604,176.71 420.75,178.673L427.121,231.609L479.368,273.575C480.298,274.322 480.781,275.419 480.782,276.526L480.792,379.043C480.792,382.382 476.813,384.049 474.415,381.829L441.358,355.276L160.027,355.276L160.027,379.043C160.027,382.382 156.048,384.049 153.651,381.829L92.803,332.954C91.873,332.207 91.39,331.11 91.389,330.003L91.379,227.486C91.379,225.389 93.08,223.689 95.176,223.689L96.221,223.691ZM453.453,355.276L473.198,371.136L473.198,355.276L453.453,355.276ZM473.198,347.683L473.198,332.95L160.027,332.95L160.027,347.683L473.198,347.683ZM473.198,325.357L473.198,310.169L380.114,310.169L380.114,325.357L473.198,325.357ZM372.52,325.357L372.52,310.169L278.736,310.169L278.736,325.357L372.52,325.357ZM271.142,325.357L271.142,310.169L160.027,310.169L160.027,325.357L271.142,325.357ZM465.017,302.575L424.834,270.299L337.602,270.299L377.785,302.575L465.017,302.575ZM365.69,302.575L325.507,270.299L236.224,270.299L276.408,302.575L365.69,302.575ZM264.312,302.575L224.129,270.299L154.525,270.299L158.604,273.575C159.533,274.322 160.017,275.419 160.018,276.526L160.027,302.575L264.312,302.575ZM145.071,262.705L221.887,262.705L212.264,182.756L119.215,182.756L127.1,248.27L145.071,262.705ZM118.64,241.475L111.573,182.756L98.939,182.756L104.654,230.241L118.64,241.475ZM152.434,278.334L98.973,235.393L98.973,328.195L152.434,371.136L152.434,278.334ZM428.416,242.364L431.227,265.718L473.198,299.43L473.198,278.334L428.416,242.364ZM413.6,182.756L320.551,182.756L330.173,262.705L423.223,262.705C420.005,235.972 416.841,209.684 413.6,182.756ZM219.906,182.756L229.528,262.705L322.531,262.705L312.909,182.756L219.906,182.756Z" style="fill:white;fill-rule:nonzero;"/></g></svg>