<svg width="336" height="159" viewBox="0 0 336 159" fill="none" xmlns="http://www.w3.org/2000/svg">
<g clip-path="url(#clip0_1_11)">
<path d="M94.0502 91.6008C57.4073 133.994 28.0873 155.453 12.0518 155.453C-5.2387 155.453 -1.04773 130.71 35.7017 89.5453" stroke="white" stroke-width="5" stroke-miterlimit="10" stroke-linecap="round"/>
<path d="M182.301 103.531C176.458 111.295 166.053 116.936 159.049 116.138C152.046 115.339 151.116 108.391 156.965 100.627C162.815 92.8631 173.213 87.2218 180.217 88.0205C187.221 88.8193 188.151 95.7675 182.301 103.531Z" stroke="white" stroke-width="5" stroke-miterlimit="10"/>
<path d="M157.256 136.167C147.659 147.17 132.2 156.386 122.731 156.755C113.262 157.123 113.358 148.505 122.95 137.502C132.542 126.498 148.006 117.283 157.481 116.914C166.955 116.545 166.854 125.164 157.256 136.167Z" stroke="white" stroke-width="5" stroke-miterlimit="10"/>
<path d="M235.17 111.379C226.099 121.779 211.487 130.492 202.533 130.838C193.58 131.185 193.675 123.019 202.741 112.641C211.806 102.263 226.424 93.5278 235.378 93.1815C244.331 92.8352 244.241 101.001 235.17 111.379V111.379Z" stroke="white" stroke-width="5" stroke-miterlimit="10"/>
<path d="M242.857 119.941C226.312 138.932 199.659 154.805 183.327 155.442C166.994 156.079 167.168 141.216 183.713 122.248C200.259 103.28 226.917 87.3894 243.238 86.7527" stroke="white" stroke-width="5" stroke-miterlimit="10" stroke-linecap="round"/>
<path d="M327.831 103.33C319.987 112.311 307.386 119.829 299.654 120.131C291.922 120.433 292.006 113.401 299.833 104.419C307.661 95.4379 320.284 87.92 328.01 87.6184C335.737 87.3168 335.664 94.3935 327.831 103.33Z" stroke="white" stroke-width="5" stroke-miterlimit="10"/>
<path d="M268.597 138.016C260.753 146.991 248.147 154.515 240.42 154.817C232.694 155.118 232.767 148.086 240.6 139.105C248.432 130.123 261.045 122.605 268.776 122.304C276.508 122.002 276.424 129.034 268.597 138.016V138.016Z" stroke="white" stroke-width="5" stroke-miterlimit="10"/>
<path d="M261.056 154.716C301.324 145.684 268.67 96.3372 305.767 89.5621" stroke="white" stroke-width="5" stroke-miterlimit="10" stroke-linecap="round"/>
<path d="M122.731 91.5282C86.0829 132.274 67.6493 148.148 53.2275 152.895" stroke="white" stroke-width="5" stroke-miterlimit="10" stroke-linecap="round"/>
<path d="M154.466 91.5282C117.818 132.274 99.3841 148.148 84.9343 152.895" stroke="white" stroke-width="5" stroke-miterlimit="10" stroke-linecap="round"/>
<path d="M100.897 2.23415C117.672 1.58066 117.498 16.8456 100.505 36.3052C83.5112 55.7648 56.1298 72.1189 39.3547 72.7723C22.5797 73.4258 22.7534 58.1609 39.747 38.6734" stroke="white" stroke-width="5" stroke-miterlimit="10" stroke-linecap="round"/>
<path d="M137.708 7.66318C101.726 48.3529 94.9635 72.8114 109.329 72.8114C122.653 72.8114 149.855 51.5869 185.915 9.69627C185.915 9.69627 141.473 62.0595 143.148 72.8394" stroke="white" stroke-width="5" stroke-linecap="round" stroke-linejoin="round"/>
<path d="M313.123 38.1986C296.993 56.6975 271.001 72.197 255.077 72.8282C239.154 73.4593 239.316 58.954 255.447 40.4607C271.578 21.9674 297.57 6.4623 313.499 5.83115" stroke="white" stroke-width="5" stroke-miterlimit="10" stroke-linecap="round"/>
<path d="M269.281 20.0628C269.281 20.0628 279.926 39.5782 315.634 24.0564" stroke="white" stroke-width="5" stroke-miterlimit="10" stroke-linecap="round"/>
<path d="M254.892 21.4592C247.088 30.4349 234.448 37.9808 226.716 38.2601C218.984 38.5394 219.073 31.5297 226.917 22.5483C234.761 13.567 247.362 6.049 255.094 5.74739C262.826 5.44578 262.742 12.4778 254.909 21.4592H254.892Z" stroke="white" stroke-width="5" stroke-miterlimit="10"/>
<path d="M195.659 56.1167C187.815 65.098 175.214 72.6216 167.482 72.9232C159.75 73.2248 159.834 66.1872 167.661 57.2114C175.488 48.2356 188.106 40.7065 195.838 40.4049C203.57 40.1033 203.492 47.1409 195.659 56.1167Z" stroke="white" stroke-width="5" stroke-miterlimit="10"/>
<path d="M188.117 72.8226C228.391 63.791 195.732 14.4439 232.834 7.66318" stroke="white" stroke-width="5" stroke-miterlimit="10" stroke-linecap="round"/>
</g>
<defs>
<clipPath id="clip0_1_11">
<rect width="336" height="159" fill="white"/>
</clipPath>
</defs>
</svg>
